ISO-10303-21;
HEADER;
/* Generated by software containing ST-Developer
 * from STEP Tools, Inc. (www.steptools.com) 
 */

FILE_DESCRIPTION(
/* description */ (''),
/* implementation_level */ '2;1');

FILE_NAME(
/* name */ 'fix-2026-06-10.step',
/* time_stamp */ '2026-06-10T03:19:47+02:00',
/* author */ (''),
/* organization */ (''),
/* preprocessor_version */ 'ST-DEVELOPER v20.1',
/* originating_system */ 'Autodesk Translation Framework v15.8.0.0',
/* authorisation */ '');

FILE_SCHEMA (('AUTOMOTIVE_DESIGN { 1 0 10303 214 3 1 1 }'));
ENDSEC;

DATA;
#10=MECHANICAL_DESIGN_GEOMETRIC_PRESENTATION_REPRESENTATION('',(#17),#862);
#11=ITEM_DEFINED_TRANSFORMATION($,$,#416,#456);
#12=(
REPRESENTATION_RELATIONSHIP($,$,#873,#872)
REPRESENTATION_RELATIONSHIP_WITH_TRANSFORMATION(#11)
SHAPE_REPRESENTATION_RELATIONSHIP()
);
#13=CONTEXT_DEPENDENT_SHAPE_REPRESENTATION(#12,#871);
#14=NEXT_ASSEMBLY_USAGE_OCCURRENCE('fix-2:1','fix-2:1','fix-2:1',#875,#876,
'fix-2:1');
#15=SHAPE_REPRESENTATION_RELATIONSHIP('SRR','None',#873,#16);
#16=ADVANCED_BREP_SHAPE_REPRESENTATION('',(#18),#861);
#17=STYLED_ITEM('',(#887),#18);
#18=MANIFOLD_SOLID_BREP('fix-2',#402);
#19=FACE_BOUND('',#83,.T.);
#20=FACE_BOUND('',#86,.T.);
#21=ELLIPSE('',#427,9.52559574557325,9.);
#22=ELLIPSE('',#428,15.3211283627572,15.);
#23=ELLIPSE('',#433,15.3211283627572,15.);
#24=ELLIPSE('',#444,9.52559574557326,9.);
#25=B_SPLINE_SURFACE_WITH_KNOTS('',3,3,((#669,#670,#671,#672,#673,#674,
#675),(#676,#677,#678,#679,#680,#681,#682),(#683,#684,#685,#686,#687,#688,
#689),(#690,#691,#692,#693,#694,#695,#696),(#697,#698,#699,#700,#701,#702,
#703),(#704,#705,#706,#707,#708,#709,#710)),.UNSPECIFIED.,.F.,.F.,.F.,(4,
1,1,4),(4,1,1,1,4),(0.,0.285714285714286,0.571428571428571,1.),(-1.5707963267949,
-1.12199737628207,-0.673198425769242,-0.336599212884621,0.),
 .UNSPECIFIED.);
#26=B_SPLINE_SURFACE_WITH_KNOTS('',3,3,((#777,#778,#779,#780,#781,#782,
#783),(#784,#785,#786,#787,#788,#789,#790),(#791,#792,#793,#794,#795,#796,
#797),(#798,#799,#800,#801,#802,#803,#804),(#805,#806,#807,#808,#809,#810,
#811),(#812,#813,#814,#815,#816,#817,#818)),.UNSPECIFIED.,.F.,.F.,.F.,(4,
1,1,4),(4,1,1,1,4),(0.,0.285714285714286,0.571428571428571,1.),(5.31283931220193E-16,
0.336599212884621,0.673198425769242,1.12199737628207,1.5707963267949),
 .UNSPECIFIED.);
#27=PLANE('',#419);
#28=PLANE('',#422);
#29=PLANE('',#430);
#30=PLANE('',#436);
#31=PLANE('',#437);
#32=PLANE('',#446);
#33=PLANE('',#447);
#34=PLANE('',#448);
#35=PLANE('',#449);
#36=PLANE('',#450);
#37=PLANE('',#452);
#38=PLANE('',#454);
#39=FACE_OUTER_BOUND('',#62,.T.);
#40=FACE_OUTER_BOUND('',#63,.T.);
#41=FACE_OUTER_BOUND('',#64,.T.);
#42=FACE_OUTER_BOUND('',#65,.T.);
#43=FACE_OUTER_BOUND('',#66,.T.);
#44=FACE_OUTER_BOUND('',#67,.T.);
#45=FACE_OUTER_BOUND('',#68,.T.);
#46=FACE_OUTER_BOUND('',#69,.T.);
#47=FACE_OUTER_BOUND('',#70,.T.);
#48=FACE_OUTER_BOUND('',#71,.T.);
#49=FACE_OUTER_BOUND('',#72,.T.);
#50=FACE_OUTER_BOUND('',#73,.T.);
#51=FACE_OUTER_BOUND('',#74,.T.);
#52=FACE_OUTER_BOUND('',#75,.T.);
#53=FACE_OUTER_BOUND('',#76,.T.);
#54=FACE_OUTER_BOUND('',#77,.T.);
#55=FACE_OUTER_BOUND('',#78,.T.);
#56=FACE_OUTER_BOUND('',#79,.T.);
#57=FACE_OUTER_BOUND('',#80,.T.);
#58=FACE_OUTER_BOUND('',#81,.T.);
#59=FACE_OUTER_BOUND('',#82,.T.);
#60=FACE_OUTER_BOUND('',#84,.T.);
#61=FACE_OUTER_BOUND('',#85,.T.);
#62=EDGE_LOOP('',(#260,#261,#262,#263,#264));
#63=EDGE_LOOP('',(#265));
#64=EDGE_LOOP('',(#266,#267,#268,#269,#270));
#65=EDGE_LOOP('',(#271));
#66=EDGE_LOOP('',(#272,#273,#274,#275));
#67=EDGE_LOOP('',(#276,#277,#278,#279));
#68=EDGE_LOOP('',(#280,#281,#282,#283));
#69=EDGE_LOOP('',(#284,#285,#286,#287));
#70=EDGE_LOOP('',(#288,#289,#290,#291,#292,#293,#294,#295,#296));
#71=EDGE_LOOP('',(#297,#298,#299,#300));
#72=EDGE_LOOP('',(#301,#302,#303,#304,#305,#306,#307,#308,#309,#310,#311));
#73=EDGE_LOOP('',(#312,#313,#314,#315));
#74=EDGE_LOOP('',(#316,#317,#318,#319));
#75=EDGE_LOOP('',(#320,#321,#322,#323));
#76=EDGE_LOOP('',(#324,#325,#326,#327,#328));
#77=EDGE_LOOP('',(#329,#330,#331,#332));
#78=EDGE_LOOP('',(#333,#334,#335,#336));
#79=EDGE_LOOP('',(#337,#338,#339,#340,#341));
#80=EDGE_LOOP('',(#342,#343,#344,#345));
#81=EDGE_LOOP('',(#346,#347,#348,#349,#350));
#82=EDGE_LOOP('',(#351,#352,#353,#354,#355));
#83=EDGE_LOOP('',(#356,#357));
#84=EDGE_LOOP('',(#358,#359,#360,#361,#362));
#85=EDGE_LOOP('',(#363,#364,#365,#366,#367));
#86=EDGE_LOOP('',(#368,#369));
#87=CIRCLE('',#418,2.);
#88=CIRCLE('',#421,2.);
#89=CIRCLE('',#424,6.);
#90=CIRCLE('',#425,6.);
#91=CIRCLE('',#426,6.);
#92=CIRCLE('',#431,51.45);
#93=CIRCLE('',#434,15.);
#94=CIRCLE('',#435,15.);
#95=CIRCLE('',#438,51.45);
#96=CIRCLE('',#439,51.45);
#97=CIRCLE('',#440,6.);
#98=CIRCLE('',#442,6.);
#99=CIRCLE('',#443,6.);
#100=CIRCLE('',#451,51.45);
#101=LINE('',#614,#132);
#102=LINE('',#657,#133);
#103=LINE('',#665,#134);
#104=LINE('',#668,#135);
#105=LINE('',#729,#136);
#106=LINE('',#730,#137);
#107=LINE('',#733,#138);
#108=LINE('',#735,#139);
#109=LINE('',#739,#140);
#110=LINE('',#743,#141);
#111=LINE('',#747,#142);
#112=LINE('',#749,#143);
#113=LINE('',#753,#144);
#114=LINE('',#754,#145);
#115=LINE('',#757,#146);
#116=LINE('',#761,#147);
#117=LINE('',#763,#148);
#118=LINE('',#765,#149);
#119=LINE('',#767,#150);
#120=LINE('',#771,#151);
#121=LINE('',#775,#152);
#122=LINE('',#835,#153);
#123=LINE('',#836,#154);
#124=LINE('',#838,#155);
#125=LINE('',#840,#156);
#126=LINE('',#841,#157);
#127=LINE('',#843,#158);
#128=LINE('',#846,#159);
#129=LINE('',#847,#160);
#130=LINE('',#851,#161);
#131=LINE('',#853,#162);
#132=VECTOR('',#463,2.);
#133=VECTOR('',#470,2.);
#134=VECTOR('',#479,10.);
#135=VECTOR('',#482,10.);
#136=VECTOR('',#491,10.);
#137=VECTOR('',#492,10.);
#138=VECTOR('',#495,10.);
#139=VECTOR('',#496,10.);
#140=VECTOR('',#501,10.);
#141=VECTOR('',#504,10.);
#142=VECTOR('',#507,10.);
#143=VECTOR('',#508,10.);
#144=VECTOR('',#513,10.);
#145=VECTOR('',#514,10.);
#146=VECTOR('',#517,10.);
#147=VECTOR('',#520,10.);
#148=VECTOR('',#521,10.);
#149=VECTOR('',#522,10.);
#150=VECTOR('',#523,10.);
#151=VECTOR('',#526,10.);
#152=VECTOR('',#531,10.);
#153=VECTOR('',#540,10.);
#154=VECTOR('',#541,10.);
#155=VECTOR('',#544,10.);
#156=VECTOR('',#547,10.);
#157=VECTOR('',#548,10.);
#158=VECTOR('',#551,10.);
#159=VECTOR('',#554,10.);
#160=VECTOR('',#555,10.);
#161=VECTOR('',#562,10.);
#162=VECTOR('',#565,10.);
#163=B_SPLINE_CURVE_WITH_KNOTS('',3,(#577,#578,#579,#580,#581,#582,#583,
#584,#585,#586,#587,#588,#589,#590,#591,#592,#593,#594),.UNSPECIFIED.,.F.,
 .F.,(4,2,2,2,2,2,2,2,4),(0.,0.0753454834643754,0.150690966928751,0.226036444583602,
0.301381922238453,0.376727399893304,0.452072877548155,0.52741836101253,
0.602763844476905),.UNSPECIFIED.);
#164=B_SPLINE_CURVE_WITH_KNOTS('',3,(#595,#596,#597,#598,#599,#600,#601,
#602,#603,#604,#605,#606,#607,#608,#609,#610,#611,#612),.UNSPECIFIED.,.F.,
 .F.,(4,2,2,2,2,2,2,2,4),(0.602763844476905,0.678109327941281,0.753454811405656,
0.828800289060507,0.904145766715358,0.979491244370209,1.05483672202506,
1.13018220548944,1.20552768895381),.UNSPECIFIED.);
#165=B_SPLINE_CURVE_WITH_KNOTS('',3,(#620,#621,#622,#623,#624,#625,#626,
#627,#628,#629,#630,#631,#632,#633,#634,#635,#636,#637),.UNSPECIFIED.,.F.,
 .F.,(4,2,2,2,2,2,2,2,4),(0.,0.0753454834643753,0.150690966928751,0.226036444583601,
0.301381922238452,0.376727399893303,0.452072877548154,0.52741836101253,
0.602763844476905),.UNSPECIFIED.);
#166=B_SPLINE_CURVE_WITH_KNOTS('',3,(#638,#639,#640,#641,#642,#643,#644,
#645,#646,#647,#648,#649,#650,#651,#652,#653,#654,#655),.UNSPECIFIED.,.F.,
 .F.,(4,2,2,2,2,2,2,2,4),(0.602763844476905,0.67810932794128,0.753454811405656,
0.828800289060507,0.904145766715358,0.979491244370208,1.05483672202506,
1.13018220548943,1.20552768895381),.UNSPECIFIED.);
#167=B_SPLINE_CURVE_WITH_KNOTS('',3,(#719,#720,#721,#722,#723,#724,#725,
#726,#727,#728),.UNSPECIFIED.,.F.,.F.,(4,2,2,2,4),(1.8098650834501,2.03609825818566,
2.26233143292121,2.48855769167109,2.71478395042098),.UNSPECIFIED.);
#168=B_SPLINE_CURVE_WITH_KNOTS('',3,(#825,#826,#827,#828,#829,#830,#831,
#832,#833,#834),.UNSPECIFIED.,.F.,.F.,(4,2,2,2,4),(0.904946216479233,1.13117247522912,
1.357398733979,1.58363190871455,1.8098650834501),.UNSPECIFIED.);
#169=VERTEX_POINT('',#575);
#170=VERTEX_POINT('',#576);
#171=VERTEX_POINT('',#613);
#172=VERTEX_POINT('',#618);
#173=VERTEX_POINT('',#619);
#174=VERTEX_POINT('',#656);
#175=VERTEX_POINT('',#661);
#176=VERTEX_POINT('',#662);
#177=VERTEX_POINT('',#664);
#178=VERTEX_POINT('',#666);
#179=VERTEX_POINT('',#711);
#180=VERTEX_POINT('',#712);
#181=VERTEX_POINT('',#717);
#182=VERTEX_POINT('',#718);
#183=VERTEX_POINT('',#732);
#184=VERTEX_POINT('',#734);
#185=VERTEX_POINT('',#738);
#186=VERTEX_POINT('',#740);
#187=VERTEX_POINT('',#742);
#188=VERTEX_POINT('',#744);
#189=VERTEX_POINT('',#746);
#190=VERTEX_POINT('',#748);
#191=VERTEX_POINT('',#752);
#192=VERTEX_POINT('',#756);
#193=VERTEX_POINT('',#758);
#194=VERTEX_POINT('',#760);
#195=VERTEX_POINT('',#762);
#196=VERTEX_POINT('',#764);
#197=VERTEX_POINT('',#766);
#198=VERTEX_POINT('',#768);
#199=VERTEX_POINT('',#770);
#200=VERTEX_POINT('',#774);
#201=VERTEX_POINT('',#819);
#202=VERTEX_POINT('',#823);
#203=VERTEX_POINT('',#824);
#204=VERTEX_POINT('',#845);
#205=EDGE_CURVE('',#169,#170,#163,.T.);
#206=EDGE_CURVE('',#170,#169,#164,.T.);
#207=EDGE_CURVE('',#170,#171,#101,.T.);
#208=EDGE_CURVE('',#171,#171,#87,.T.);
#209=EDGE_CURVE('',#172,#173,#165,.T.);
#210=EDGE_CURVE('',#173,#172,#166,.T.);
#211=EDGE_CURVE('',#173,#174,#102,.T.);
#212=EDGE_CURVE('',#174,#174,#88,.T.);
#213=EDGE_CURVE('',#175,#176,#89,.T.);
#214=EDGE_CURVE('',#176,#177,#103,.T.);
#215=EDGE_CURVE('',#177,#178,#90,.T.);
#216=EDGE_CURVE('',#178,#175,#104,.T.);
#217=EDGE_CURVE('',#179,#180,#91,.T.);
#218=EDGE_CURVE('',#180,#178,#21,.T.);
#219=EDGE_CURVE('',#177,#179,#22,.T.);
#220=EDGE_CURVE('',#181,#182,#167,.F.);
#221=EDGE_CURVE('',#182,#180,#105,.T.);
#222=EDGE_CURVE('',#179,#181,#106,.T.);
#223=EDGE_CURVE('',#183,#179,#107,.T.);
#224=EDGE_CURVE('',#183,#184,#108,.T.);
#225=EDGE_CURVE('',#184,#181,#92,.F.);
#226=EDGE_CURVE('',#177,#185,#109,.T.);
#227=EDGE_CURVE('',#186,#185,#23,.T.);
#228=EDGE_CURVE('',#186,#187,#110,.T.);
#229=EDGE_CURVE('',#187,#188,#93,.T.);
#230=EDGE_CURVE('',#188,#189,#111,.T.);
#231=EDGE_CURVE('',#189,#190,#112,.T.);
#232=EDGE_CURVE('',#190,#183,#94,.T.);
#233=EDGE_CURVE('',#191,#176,#113,.T.);
#234=EDGE_CURVE('',#185,#191,#114,.T.);
#235=EDGE_CURVE('',#175,#192,#115,.T.);
#236=EDGE_CURVE('',#193,#192,#95,.F.);
#237=EDGE_CURVE('',#194,#193,#116,.T.);
#238=EDGE_CURVE('',#195,#194,#117,.T.);
#239=EDGE_CURVE('',#195,#196,#118,.T.);
#240=EDGE_CURVE('',#197,#196,#119,.T.);
#241=EDGE_CURVE('',#198,#197,#96,.F.);
#242=EDGE_CURVE('',#198,#199,#120,.T.);
#243=EDGE_CURVE('',#191,#199,#97,.T.);
#244=EDGE_CURVE('',#199,#200,#121,.T.);
#245=EDGE_CURVE('',#200,#185,#98,.T.);
#246=EDGE_CURVE('',#201,#186,#99,.T.);
#247=EDGE_CURVE('',#200,#201,#24,.T.);
#248=EDGE_CURVE('',#202,#203,#168,.F.);
#249=EDGE_CURVE('',#203,#186,#122,.T.);
#250=EDGE_CURVE('',#201,#202,#123,.T.);
#251=EDGE_CURVE('',#198,#202,#124,.F.);
#252=EDGE_CURVE('',#195,#189,#125,.T.);
#253=EDGE_CURVE('',#194,#190,#126,.T.);
#254=EDGE_CURVE('',#196,#188,#127,.T.);
#255=EDGE_CURVE('',#204,#187,#128,.T.);
#256=EDGE_CURVE('',#197,#204,#129,.T.);
#257=EDGE_CURVE('',#203,#204,#100,.F.);
#258=EDGE_CURVE('',#192,#182,#130,.T.);
#259=EDGE_CURVE('',#193,#184,#131,.F.);
#260=ORIENTED_EDGE('',*,*,#205,.F.);
#261=ORIENTED_EDGE('',*,*,#206,.F.);
#262=ORIENTED_EDGE('',*,*,#207,.T.);
#263=ORIENTED_EDGE('',*,*,#208,.T.);
#264=ORIENTED_EDGE('',*,*,#207,.F.);
#265=ORIENTED_EDGE('',*,*,#208,.F.);
#266=ORIENTED_EDGE('',*,*,#209,.F.);
#267=ORIENTED_EDGE('',*,*,#210,.F.);
#268=ORIENTED_EDGE('',*,*,#211,.T.);
#269=ORIENTED_EDGE('',*,*,#212,.T.);
#270=ORIENTED_EDGE('',*,*,#211,.F.);
#271=ORIENTED_EDGE('',*,*,#212,.F.);
#272=ORIENTED_EDGE('',*,*,#213,.T.);
#273=ORIENTED_EDGE('',*,*,#214,.T.);
#274=ORIENTED_EDGE('',*,*,#215,.T.);
#275=ORIENTED_EDGE('',*,*,#216,.T.);
#276=ORIENTED_EDGE('',*,*,#217,.T.);
#277=ORIENTED_EDGE('',*,*,#218,.T.);
#278=ORIENTED_EDGE('',*,*,#215,.F.);
#279=ORIENTED_EDGE('',*,*,#219,.T.);
#280=ORIENTED_EDGE('',*,*,#220,.T.);
#281=ORIENTED_EDGE('',*,*,#221,.T.);
#282=ORIENTED_EDGE('',*,*,#217,.F.);
#283=ORIENTED_EDGE('',*,*,#222,.T.);
#284=ORIENTED_EDGE('',*,*,#222,.F.);
#285=ORIENTED_EDGE('',*,*,#223,.F.);
#286=ORIENTED_EDGE('',*,*,#224,.T.);
#287=ORIENTED_EDGE('',*,*,#225,.T.);
#288=ORIENTED_EDGE('',*,*,#219,.F.);
#289=ORIENTED_EDGE('',*,*,#226,.T.);
#290=ORIENTED_EDGE('',*,*,#227,.F.);
#291=ORIENTED_EDGE('',*,*,#228,.T.);
#292=ORIENTED_EDGE('',*,*,#229,.T.);
#293=ORIENTED_EDGE('',*,*,#230,.T.);
#294=ORIENTED_EDGE('',*,*,#231,.T.);
#295=ORIENTED_EDGE('',*,*,#232,.T.);
#296=ORIENTED_EDGE('',*,*,#223,.T.);
#297=ORIENTED_EDGE('',*,*,#214,.F.);
#298=ORIENTED_EDGE('',*,*,#233,.F.);
#299=ORIENTED_EDGE('',*,*,#234,.F.);
#300=ORIENTED_EDGE('',*,*,#226,.F.);
#301=ORIENTED_EDGE('',*,*,#213,.F.);
#302=ORIENTED_EDGE('',*,*,#235,.T.);
#303=ORIENTED_EDGE('',*,*,#236,.F.);
#304=ORIENTED_EDGE('',*,*,#237,.F.);
#305=ORIENTED_EDGE('',*,*,#238,.F.);
#306=ORIENTED_EDGE('',*,*,#239,.T.);
#307=ORIENTED_EDGE('',*,*,#240,.F.);
#308=ORIENTED_EDGE('',*,*,#241,.F.);
#309=ORIENTED_EDGE('',*,*,#242,.T.);
#310=ORIENTED_EDGE('',*,*,#243,.F.);
#311=ORIENTED_EDGE('',*,*,#233,.T.);
#312=ORIENTED_EDGE('',*,*,#243,.T.);
#313=ORIENTED_EDGE('',*,*,#244,.T.);
#314=ORIENTED_EDGE('',*,*,#245,.T.);
#315=ORIENTED_EDGE('',*,*,#234,.T.);
#316=ORIENTED_EDGE('',*,*,#246,.T.);
#317=ORIENTED_EDGE('',*,*,#227,.T.);
#318=ORIENTED_EDGE('',*,*,#245,.F.);
#319=ORIENTED_EDGE('',*,*,#247,.T.);
#320=ORIENTED_EDGE('',*,*,#248,.T.);
#321=ORIENTED_EDGE('',*,*,#249,.T.);
#322=ORIENTED_EDGE('',*,*,#246,.F.);
#323=ORIENTED_EDGE('',*,*,#250,.T.);
#324=ORIENTED_EDGE('',*,*,#250,.F.);
#325=ORIENTED_EDGE('',*,*,#247,.F.);
#326=ORIENTED_EDGE('',*,*,#244,.F.);
#327=ORIENTED_EDGE('',*,*,#242,.F.);
#328=ORIENTED_EDGE('',*,*,#251,.T.);
#329=ORIENTED_EDGE('',*,*,#231,.F.);
#330=ORIENTED_EDGE('',*,*,#252,.F.);
#331=ORIENTED_EDGE('',*,*,#238,.T.);
#332=ORIENTED_EDGE('',*,*,#253,.T.);
#333=ORIENTED_EDGE('',*,*,#230,.F.);
#334=ORIENTED_EDGE('',*,*,#254,.F.);
#335=ORIENTED_EDGE('',*,*,#239,.F.);
#336=ORIENTED_EDGE('',*,*,#252,.T.);
#337=ORIENTED_EDGE('',*,*,#229,.F.);
#338=ORIENTED_EDGE('',*,*,#255,.F.);
#339=ORIENTED_EDGE('',*,*,#256,.F.);
#340=ORIENTED_EDGE('',*,*,#240,.T.);
#341=ORIENTED_EDGE('',*,*,#254,.T.);
#342=ORIENTED_EDGE('',*,*,#249,.F.);
#343=ORIENTED_EDGE('',*,*,#257,.T.);
#344=ORIENTED_EDGE('',*,*,#255,.T.);
#345=ORIENTED_EDGE('',*,*,#228,.F.);
#346=ORIENTED_EDGE('',*,*,#221,.F.);
#347=ORIENTED_EDGE('',*,*,#258,.F.);
#348=ORIENTED_EDGE('',*,*,#235,.F.);
#349=ORIENTED_EDGE('',*,*,#216,.F.);
#350=ORIENTED_EDGE('',*,*,#218,.F.);
#351=ORIENTED_EDGE('',*,*,#220,.F.);
#352=ORIENTED_EDGE('',*,*,#225,.F.);
#353=ORIENTED_EDGE('',*,*,#259,.F.);
#354=ORIENTED_EDGE('',*,*,#236,.T.);
#355=ORIENTED_EDGE('',*,*,#258,.T.);
#356=ORIENTED_EDGE('',*,*,#209,.T.);
#357=ORIENTED_EDGE('',*,*,#210,.T.);
#358=ORIENTED_EDGE('',*,*,#232,.F.);
#359=ORIENTED_EDGE('',*,*,#253,.F.);
#360=ORIENTED_EDGE('',*,*,#237,.T.);
#361=ORIENTED_EDGE('',*,*,#259,.T.);
#362=ORIENTED_EDGE('',*,*,#224,.F.);
#363=ORIENTED_EDGE('',*,*,#248,.F.);
#364=ORIENTED_EDGE('',*,*,#251,.F.);
#365=ORIENTED_EDGE('',*,*,#241,.T.);
#366=ORIENTED_EDGE('',*,*,#256,.T.);
#367=ORIENTED_EDGE('',*,*,#257,.F.);
#368=ORIENTED_EDGE('',*,*,#205,.T.);
#369=ORIENTED_EDGE('',*,*,#206,.T.);
#370=CYLINDRICAL_SURFACE('',#417,2.);
#371=CYLINDRICAL_SURFACE('',#420,2.);
#372=CYLINDRICAL_SURFACE('',#423,6.);
#373=CYLINDRICAL_SURFACE('',#429,6.);
#374=CYLINDRICAL_SURFACE('',#432,15.);
#375=CYLINDRICAL_SURFACE('',#441,6.);
#376=CYLINDRICAL_SURFACE('',#445,6.);
#377=CYLINDRICAL_SURFACE('',#453,51.45);
#378=CYLINDRICAL_SURFACE('',#455,51.45);
#379=ADVANCED_FACE('',(#39),#370,.F.);
#380=ADVANCED_FACE('',(#40),#27,.T.);
#381=ADVANCED_FACE('',(#41),#371,.F.);
#382=ADVANCED_FACE('',(#42),#28,.T.);
#383=ADVANCED_FACE('',(#43),#372,.T.);
#384=ADVANCED_FACE('',(#44),#25,.F.);
#385=ADVANCED_FACE('',(#45),#373,.T.);
#386=ADVANCED_FACE('',(#46),#29,.T.);
#387=ADVANCED_FACE('',(#47),#374,.T.);
#388=ADVANCED_FACE('',(#48),#30,.T.);
#389=ADVANCED_FACE('',(#49),#31,.F.);
#390=ADVANCED_FACE('',(#50),#375,.T.);
#391=ADVANCED_FACE('',(#51),#26,.F.);
#392=ADVANCED_FACE('',(#52),#376,.T.);
#393=ADVANCED_FACE('',(#53),#32,.T.);
#394=ADVANCED_FACE('',(#54),#33,.T.);
#395=ADVANCED_FACE('',(#55),#34,.T.);
#396=ADVANCED_FACE('',(#56),#35,.T.);
#397=ADVANCED_FACE('',(#57),#36,.T.);
#398=ADVANCED_FACE('',(#58),#37,.T.);
#399=ADVANCED_FACE('',(#59,#19),#377,.T.);
#400=ADVANCED_FACE('',(#60),#38,.T.);
#401=ADVANCED_FACE('',(#61,#20),#378,.T.);
#402=CLOSED_SHELL('',(#379,#380,#381,#382,#383,#384,#385,#386,#387,#388,
#389,#390,#391,#392,#393,#394,#395,#396,#397,#398,#399,#400,#401));
#403=DERIVED_UNIT_ELEMENT(#405,1.);
#404=DERIVED_UNIT_ELEMENT(#864,-3.);
#405=(
MASS_UNIT()
NAMED_UNIT(*)
SI_UNIT(.KILO.,.GRAM.)
);
#406=DERIVED_UNIT((#403,#404));
#407=MEASURE_REPRESENTATION_ITEM('density measure',
POSITIVE_RATIO_MEASURE(7850.),#406);
#408=PROPERTY_DEFINITION_REPRESENTATION(#413,#410);
#409=PROPERTY_DEFINITION_REPRESENTATION(#414,#411);
#410=REPRESENTATION('material name',(#412),#861);
#411=REPRESENTATION('density',(#407),#861);
#412=DESCRIPTIVE_REPRESENTATION_ITEM('Stahl','Stahl');
#413=PROPERTY_DEFINITION('material property','material name',#876);
#414=PROPERTY_DEFINITION('material property','density of part',#876);
#415=AXIS2_PLACEMENT_3D('',#572,#457,#458);
#416=AXIS2_PLACEMENT_3D('',#573,#459,#460);
#417=AXIS2_PLACEMENT_3D('',#574,#461,#462);
#418=AXIS2_PLACEMENT_3D('',#615,#464,#465);
#419=AXIS2_PLACEMENT_3D('',#616,#466,#467);
#420=AXIS2_PLACEMENT_3D('',#617,#468,#469);
#421=AXIS2_PLACEMENT_3D('',#658,#471,#472);
#422=AXIS2_PLACEMENT_3D('',#659,#473,#474);
#423=AXIS2_PLACEMENT_3D('',#660,#475,#476);
#424=AXIS2_PLACEMENT_3D('',#663,#477,#478);
#425=AXIS2_PLACEMENT_3D('',#667,#480,#481);
#426=AXIS2_PLACEMENT_3D('',#713,#483,#484);
#427=AXIS2_PLACEMENT_3D('',#714,#485,#486);
#428=AXIS2_PLACEMENT_3D('',#715,#487,#488);
#429=AXIS2_PLACEMENT_3D('',#716,#489,#490);
#430=AXIS2_PLACEMENT_3D('',#731,#493,#494);
#431=AXIS2_PLACEMENT_3D('',#736,#497,#498);
#432=AXIS2_PLACEMENT_3D('',#737,#499,#500);
#433=AXIS2_PLACEMENT_3D('',#741,#502,#503);
#434=AXIS2_PLACEMENT_3D('',#745,#505,#506);
#435=AXIS2_PLACEMENT_3D('',#750,#509,#510);
#436=AXIS2_PLACEMENT_3D('',#751,#511,#512);
#437=AXIS2_PLACEMENT_3D('',#755,#515,#516);
#438=AXIS2_PLACEMENT_3D('',#759,#518,#519);
#439=AXIS2_PLACEMENT_3D('',#769,#524,#525);
#440=AXIS2_PLACEMENT_3D('',#772,#527,#528);
#441=AXIS2_PLACEMENT_3D('',#773,#529,#530);
#442=AXIS2_PLACEMENT_3D('',#776,#532,#533);
#443=AXIS2_PLACEMENT_3D('',#820,#534,#535);
#444=AXIS2_PLACEMENT_3D('',#821,#536,#537);
#445=AXIS2_PLACEMENT_3D('',#822,#538,#539);
#446=AXIS2_PLACEMENT_3D('',#837,#542,#543);
#447=AXIS2_PLACEMENT_3D('',#839,#545,#546);
#448=AXIS2_PLACEMENT_3D('',#842,#549,#550);
#449=AXIS2_PLACEMENT_3D('',#844,#552,#553);
#450=AXIS2_PLACEMENT_3D('',#848,#556,#557);
#451=AXIS2_PLACEMENT_3D('',#849,#558,#559);
#452=AXIS2_PLACEMENT_3D('',#850,#560,#561);
#453=AXIS2_PLACEMENT_3D('',#852,#563,#564);
#454=AXIS2_PLACEMENT_3D('',#854,#566,#567);
#455=AXIS2_PLACEMENT_3D('',#855,#568,#569);
#456=AXIS2_PLACEMENT_3D('',#856,#570,#571);
#457=DIRECTION('axis',(0.,0.,1.));
#458=DIRECTION('refdir',(1.,0.,0.));
#459=DIRECTION('axis',(0.,0.,1.));
#460=DIRECTION('refdir',(1.,0.,0.));
#461=DIRECTION('center_axis',(-0.965925826289068,0.,0.258819045102521));
#462=DIRECTION('ref_axis',(-0.258819045102521,0.,-0.965925826289068));
#463=DIRECTION('',(-0.965925826289068,0.,0.258819045102521));
#464=DIRECTION('center_axis',(-0.965925826289068,0.,0.258819045102521));
#465=DIRECTION('ref_axis',(-0.258819045102521,0.,-0.965925826289068));
#466=DIRECTION('center_axis',(0.965925826289068,0.,-0.258819045102521));
#467=DIRECTION('ref_axis',(-0.258819045102521,0.,-0.965925826289068));
#468=DIRECTION('center_axis',(-0.965925826289068,0.,-0.258819045102521));
#469=DIRECTION('ref_axis',(0.258819045102521,0.,-0.965925826289068));
#470=DIRECTION('',(-0.965925826289068,0.,-0.258819045102521));
#471=DIRECTION('center_axis',(-0.965925826289068,0.,-0.258819045102521));
#472=DIRECTION('ref_axis',(0.258819045102521,0.,-0.965925826289068));
#473=DIRECTION('center_axis',(0.965925826289068,0.,0.258819045102521));
#474=DIRECTION('ref_axis',(0.258819045102521,0.,-0.965925826289068));
#475=DIRECTION('center_axis',(0.,-1.,0.));
#476=DIRECTION('ref_axis',(-0.814733660702566,0.,0.579835375014491));
#477=DIRECTION('center_axis',(0.,-1.,0.));
#478=DIRECTION('ref_axis',(-0.814733660702566,0.,0.579835375014491));
#479=DIRECTION('',(0.,-1.,0.));
#480=DIRECTION('center_axis',(0.,1.,0.));
#481=DIRECTION('ref_axis',(-1.,0.,5.55111512312579E-16));
#482=DIRECTION('',(0.,1.,0.));
#483=DIRECTION('center_axis',(-0.944822795380803,6.99309347748314E-16,-0.32758187576361));
#484=DIRECTION('ref_axis',(-7.40148683083438E-16,-1.,0.));
#485=DIRECTION('center_axis',(0.32758187576361,0.,-0.944822795380803));
#486=DIRECTION('ref_axis',(-0.944822795380803,0.,-0.32758187576361));
#487=DIRECTION('center_axis',(-0.203667278820396,6.02976272824413E-17,0.979040162372257));
#488=DIRECTION('ref_axis',(-0.979040162372257,0.,-0.203667278820396));
#489=DIRECTION('center_axis',(-0.944822795380803,0.,-0.32758187576361));
#490=DIRECTION('ref_axis',(-0.231635365746257,-0.707106781186547,0.668090605633396));
#491=DIRECTION('',(-0.944822795380803,0.,-0.32758187576361));
#492=DIRECTION('',(0.944822795380803,0.,0.32758187576361));
#493=DIRECTION('center_axis',(0.,-1.,0.));
#494=DIRECTION('ref_axis',(1.,0.,0.));
#495=DIRECTION('',(5.200137545414E-16,0.,1.));
#496=DIRECTION('',(1.,0.,0.));
#497=DIRECTION('center_axis',(0.,1.,0.));
#498=DIRECTION('ref_axis',(1.,0.,0.));
#499=DIRECTION('center_axis',(-5.200137545414E-16,0.,-1.));
#500=DIRECTION('ref_axis',(-0.707106781186547,-0.707106781186547,3.14018491736755E-16));
#501=DIRECTION('',(-5.200137545414E-16,0.,-1.));
#502=DIRECTION('center_axis',(-0.203667278820398,1.20595254564884E-16,-0.979040162372257));
#503=DIRECTION('ref_axis',(-0.979040162372256,4.34781172119372E-16,0.203667278820398));
#504=DIRECTION('',(5.200137545414E-16,0.,1.));
#505=DIRECTION('center_axis',(0.,0.,-1.));
#506=DIRECTION('ref_axis',(-0.707106781186547,-0.707106781186547,3.14018491736755E-16));
#507=DIRECTION('',(0.000165888497901837,-5.54526960065403E-5,0.999999984703002));
#508=DIRECTION('',(0.000764809111169631,-0.000255491176090865,0.999999674895588));
#509=DIRECTION('center_axis',(0.,0.,1.));
#510=DIRECTION('ref_axis',(-0.707106781186547,-0.707106781186547,3.14018491736755E-16));
#511=DIRECTION('center_axis',(-1.,0.,5.200137545414E-16));
#512=DIRECTION('ref_axis',(-5.200137545414E-16,0.,-1.));
#513=DIRECTION('',(5.200137545414E-16,0.,1.));
#514=DIRECTION('',(0.,1.,0.));
#515=DIRECTION('center_axis',(0.,-1.,0.));
#516=DIRECTION('ref_axis',(1.,0.,0.));
#517=DIRECTION('',(0.944822795380803,0.,0.32758187576361));
#518=DIRECTION('center_axis',(0.,1.,0.));
#519=DIRECTION('ref_axis',(1.,0.,0.));
#520=DIRECTION('',(1.,0.,0.));
#521=DIRECTION('',(0.000764809136131328,0.,0.99999970753345));
#522=DIRECTION('',(-0.000165888498157078,0.,-0.999999986240503));
#523=DIRECTION('',(-1.,0.,0.));
#524=DIRECTION('center_axis',(0.,1.,0.));
#525=DIRECTION('ref_axis',(1.,0.,0.));
#526=DIRECTION('',(-0.944822795380802,0.,0.327581875763613));
#527=DIRECTION('center_axis',(0.,-1.,0.));
#528=DIRECTION('ref_axis',(-0.814733660702568,0.,-0.579835375014489));
#529=DIRECTION('center_axis',(0.,-1.,0.));
#530=DIRECTION('ref_axis',(-0.814733660702568,0.,-0.579835375014489));
#531=DIRECTION('',(0.,-1.,0.));
#532=DIRECTION('center_axis',(0.,1.,0.));
#533=DIRECTION('ref_axis',(-0.327581875763612,0.,-0.944822795380802));
#534=DIRECTION('center_axis',(-0.944822795380802,0.,0.327581875763613));
#535=DIRECTION('ref_axis',(-0.327581875763613,0.,-0.944822795380802));
#536=DIRECTION('center_axis',(0.327581875763613,0.,0.944822795380802));
#537=DIRECTION('ref_axis',(-0.944822795380802,5.24482010811235E-16,0.327581875763613));
#538=DIRECTION('center_axis',(0.944822795380802,0.,-0.327581875763613));
#539=DIRECTION('ref_axis',(-0.231635365746259,-0.707106781186548,-0.668090605633395));
#540=DIRECTION('',(-0.944822795380802,0.,0.327581875763613));
#541=DIRECTION('',(0.944822795380802,0.,-0.327581875763613));
#542=DIRECTION('center_axis',(-0.327581875763613,0.,-0.944822795380802));
#543=DIRECTION('ref_axis',(0.944822795380802,0.,-0.327581875763613));
#544=DIRECTION('',(0.,1.,0.));
#545=DIRECTION('center_axis',(0.99999970753345,0.,-0.000764809136131328));
#546=DIRECTION('ref_axis',(0.000764809136131328,0.,0.99999970753345));
#547=DIRECTION('',(0.,-1.,0.));
#548=DIRECTION('',(0.,-1.,0.));
#549=DIRECTION('center_axis',(0.999999986240503,0.,-0.000165888498157078));
#550=DIRECTION('ref_axis',(0.000165888498157078,0.,0.999999986240503));
#551=DIRECTION('',(0.,-1.,0.));
#552=DIRECTION('center_axis',(0.,0.,1.));
#553=DIRECTION('ref_axis',(-1.,0.,0.));
#554=DIRECTION('',(-1.,0.,0.));
#555=DIRECTION('',(0.,-1.,0.));
#556=DIRECTION('center_axis',(0.,-1.,0.));
#557=DIRECTION('ref_axis',(1.,0.,0.));
#558=DIRECTION('center_axis',(0.,1.,0.));
#559=DIRECTION('ref_axis',(1.,0.,0.));
#560=DIRECTION('center_axis',(-0.32758187576361,0.,0.944822795380803));
#561=DIRECTION('ref_axis',(-0.944822795380803,0.,-0.32758187576361));
#562=DIRECTION('',(0.,-1.,0.));
#563=DIRECTION('center_axis',(0.,-1.,0.));
#564=DIRECTION('ref_axis',(1.,0.,0.));
#565=DIRECTION('',(0.,1.,0.));
#566=DIRECTION('center_axis',(0.,0.,-1.));
#567=DIRECTION('ref_axis',(1.,0.,0.));
#568=DIRECTION('center_axis',(0.,-1.,0.));
#569=DIRECTION('ref_axis',(1.,0.,0.));
#570=DIRECTION('',(0.,0.,1.));
#571=DIRECTION('',(1.,0.,0.));
#572=CARTESIAN_POINT('',(0.,0.,0.));
#573=CARTESIAN_POINT('',(0.,0.,0.));
#574=CARTESIAN_POINT('Origin',(59.8874012299222,-8.00000011920929,-16.0467807963563));
#575=CARTESIAN_POINT('',(49.1416833399462,-8.00000011920929,-15.2380267264647));
#576=CARTESIAN_POINT('',(50.1769595203563,-8.00000011920929,-11.3743234213084));
#577=CARTESIAN_POINT('Ctrl Pts',(49.1416833399462,-8.00000011920929,-15.2380267264647));
#578=CARTESIAN_POINT('Ctrl Pts',(49.1416833399462,-8.25115173075721,-15.2380267264647));
#579=CARTESIAN_POINT('Ctrl Pts',(49.15663603485,-8.51902651373324,-15.1900646129285));
#580=CARTESIAN_POINT('Ctrl Pts',(49.2165501958477,-9.01177769466099,-14.9948029670436));
#581=CARTESIAN_POINT('Ctrl Pts',(49.2614094653329,-9.23665623421349,-14.847477495308));
#582=CARTESIAN_POINT('Ctrl Pts',(49.3627520162706,-9.59177111526069,-14.5069901723333));
#583=CARTESIAN_POINT('Ctrl Pts',(49.4259761108999,-9.74568703637706,-14.2911196152756));
#584=CARTESIAN_POINT('Ctrl Pts',(49.5605909811793,-9.94980223874217,-13.8170559805416));
#585=CARTESIAN_POINT('Ctrl Pts',(49.6318809473078,-10.0000001192093,-13.5588336797277));
#586=CARTESIAN_POINT('Ctrl Pts',(49.7618865778373,-10.0000001192093,-13.0736460613217));
#587=CARTESIAN_POINT('Ctrl Pts',(49.829258806542,-9.94980223874217,-12.8143740059289));
#588=CARTESIAN_POINT('Ctrl Pts',(49.9497107265199,-9.74568703637706,-12.3365154200992));
#589=CARTESIAN_POINT('Ctrl Pts',(50.0028923329685,-9.59177111526069,-12.1179539864434));
#590=CARTESIAN_POINT('Ctrl Pts',(50.0853707708595,-9.23665623421349,-11.772412039612));
#591=CARTESIAN_POINT('Ctrl Pts',(50.1201842397579,-9.01177769466099,-11.6223948037218));
#592=CARTESIAN_POINT('Ctrl Pts',(50.16592787723,-8.51902651373324,-11.4233361775019));
#593=CARTESIAN_POINT('Ctrl Pts',(50.1769595203563,-8.25115173075721,-11.3743234213084));
#594=CARTESIAN_POINT('Ctrl Pts',(50.1769595203563,-8.00000011920929,-11.3743234213084));
#595=CARTESIAN_POINT('Ctrl Pts',(50.1769595203563,-8.00000011920929,-11.3743234213084));
#596=CARTESIAN_POINT('Ctrl Pts',(50.1769595203563,-7.74884850766137,-11.3743234213084));
#597=CARTESIAN_POINT('Ctrl Pts',(50.16592787723,-7.48097372468535,-11.4233361775019));
#598=CARTESIAN_POINT('Ctrl Pts',(50.1201842397579,-6.98822254375759,-11.6223948037218));
#599=CARTESIAN_POINT('Ctrl Pts',(50.0853707708595,-6.76334400420509,-11.772412039612));
#600=CARTESIAN_POINT('Ctrl Pts',(50.0028923329685,-6.40822912315789,-12.1179539864434));
#601=CARTESIAN_POINT('Ctrl Pts',(49.9497107265199,-6.25431320204152,-12.3365154200992));
#602=CARTESIAN_POINT('Ctrl Pts',(49.829258806542,-6.05019799967641,-12.8143740059289));
#603=CARTESIAN_POINT('Ctrl Pts',(49.7618865778373,-6.00000011920929,-13.0736460613217));
#604=CARTESIAN_POINT('Ctrl Pts',(49.6318809473078,-6.00000011920929,-13.5588336797277));
#605=CARTESIAN_POINT('Ctrl Pts',(49.5605909811793,-6.05019799967641,-13.8170559805416));
#606=CARTESIAN_POINT('Ctrl Pts',(49.4259761108999,-6.25431320204152,-14.2911196152756));
#607=CARTESIAN_POINT('Ctrl Pts',(49.3627520162706,-6.40822912315789,-14.5069901723333));
#608=CARTESIAN_POINT('Ctrl Pts',(49.2614094653329,-6.76334400420509,-14.847477495308));
#609=CARTESIAN_POINT('Ctrl Pts',(49.2165501958477,-6.98822254375758,-14.9948029670436));
#610=CARTESIAN_POINT('Ctrl Pts',(49.15663603485,-7.48097372468535,-15.1900646129285));
#611=CARTESIAN_POINT('Ctrl Pts',(49.1416833399462,-7.74884850766137,-15.2380267264647));
#612=CARTESIAN_POINT('Ctrl Pts',(49.1416833399462,-8.00000011920929,-15.2380267264647));
#613=CARTESIAN_POINT('',(41.0865227943459,-8.00000011920929,-8.93854824172773));
#614=CARTESIAN_POINT('',(60.4050393201273,-8.00000011920929,-14.1149291437781));
#615=CARTESIAN_POINT('Origin',(40.5688847041409,-8.00000011920929,-10.8703998943059));
#616=CARTESIAN_POINT('Origin',(40.5688847041409,-8.00000011920929,-10.8703998943059));
#617=CARTESIAN_POINT('Origin',(59.8874012299222,-8.00000011920929,16.0467807963563));
#618=CARTESIAN_POINT('',(50.1769595203563,-8.00000011920929,11.3743234213084));
#619=CARTESIAN_POINT('',(49.1416833399462,-8.00000011920929,15.2380267264647));
#620=CARTESIAN_POINT('Ctrl Pts',(50.1769595203563,-8.00000011920929,11.3743234213084));
#621=CARTESIAN_POINT('Ctrl Pts',(50.1769595203563,-8.25115173075721,11.3743234213084));
#622=CARTESIAN_POINT('Ctrl Pts',(50.16592787723,-8.51902651373324,11.4233361775019));
#623=CARTESIAN_POINT('Ctrl Pts',(50.1201842397579,-9.01177769466099,11.6223948037219));
#624=CARTESIAN_POINT('Ctrl Pts',(50.0853707708595,-9.23665623421349,11.772412039612));
#625=CARTESIAN_POINT('Ctrl Pts',(50.0028923329685,-9.59177111526069,12.1179539864434));
#626=CARTESIAN_POINT('Ctrl Pts',(49.94971072652,-9.74568703637706,12.3365154200992));
#627=CARTESIAN_POINT('Ctrl Pts',(49.829258806542,-9.94980223874217,12.8143740059289));
#628=CARTESIAN_POINT('Ctrl Pts',(49.7618865778373,-10.0000001192093,13.0736460613217));
#629=CARTESIAN_POINT('Ctrl Pts',(49.6318809473078,-10.0000001192093,13.5588336797277));
#630=CARTESIAN_POINT('Ctrl Pts',(49.5605909811793,-9.94980223874217,13.8170559805416));
#631=CARTESIAN_POINT('Ctrl Pts',(49.4259761109,-9.74568703637706,14.2911196152756));
#632=CARTESIAN_POINT('Ctrl Pts',(49.3627520162706,-9.59177111526069,14.5069901723334));
#633=CARTESIAN_POINT('Ctrl Pts',(49.2614094653329,-9.23665623421349,14.847477495308));
#634=CARTESIAN_POINT('Ctrl Pts',(49.2165501958477,-9.011777694661,14.9948029670436));
#635=CARTESIAN_POINT('Ctrl Pts',(49.1566360348501,-8.51902651373323,15.1900646129285));
#636=CARTESIAN_POINT('Ctrl Pts',(49.1416833399462,-8.25115173075721,15.2380267264647));
#637=CARTESIAN_POINT('Ctrl Pts',(49.1416833399462,-8.00000011920929,15.2380267264647));
#638=CARTESIAN_POINT('Ctrl Pts',(49.1416833399462,-8.00000011920929,15.2380267264647));
#639=CARTESIAN_POINT('Ctrl Pts',(49.1416833399462,-7.74884850766137,15.2380267264647));
#640=CARTESIAN_POINT('Ctrl Pts',(49.1566360348501,-7.48097372468534,15.1900646129285));
#641=CARTESIAN_POINT('Ctrl Pts',(49.2165501958477,-6.98822254375758,14.9948029670436));
#642=CARTESIAN_POINT('Ctrl Pts',(49.2614094653329,-6.76334400420509,14.847477495308));
#643=CARTESIAN_POINT('Ctrl Pts',(49.3627520162706,-6.40822912315789,14.5069901723334));
#644=CARTESIAN_POINT('Ctrl Pts',(49.4259761109,-6.25431320204152,14.2911196152756));
#645=CARTESIAN_POINT('Ctrl Pts',(49.5605909811793,-6.05019799967642,13.8170559805416));
#646=CARTESIAN_POINT('Ctrl Pts',(49.6318809473078,-6.00000011920929,13.5588336797277));
#647=CARTESIAN_POINT('Ctrl Pts',(49.7618865778373,-6.00000011920929,13.0736460613217));
#648=CARTESIAN_POINT('Ctrl Pts',(49.829258806542,-6.05019799967642,12.8143740059289));
#649=CARTESIAN_POINT('Ctrl Pts',(49.94971072652,-6.25431320204152,12.3365154200992));
#650=CARTESIAN_POINT('Ctrl Pts',(50.0028923329685,-6.40822912315789,12.1179539864434));
#651=CARTESIAN_POINT('Ctrl Pts',(50.0853707708595,-6.76334400420509,11.772412039612));
#652=CARTESIAN_POINT('Ctrl Pts',(50.1201842397579,-6.98822254375759,11.6223948037219));
#653=CARTESIAN_POINT('Ctrl Pts',(50.16592787723,-7.48097372468534,11.4233361775019));
#654=CARTESIAN_POINT('Ctrl Pts',(50.1769595203563,-7.74884850766137,11.3743234213084));
#655=CARTESIAN_POINT('Ctrl Pts',(50.1769595203563,-8.00000011920929,11.3743234213084));
#656=CARTESIAN_POINT('',(40.0512466139358,-8.00000011920929,12.802251546884));
#657=CARTESIAN_POINT('',(59.3697631397172,-8.00000011920929,17.9786324489344));
#658=CARTESIAN_POINT('Origin',(40.5688847041409,-8.00000011920929,10.8703998943059));
#659=CARTESIAN_POINT('Origin',(40.5688847041409,-8.00000011920929,10.8703998943059));
#660=CARTESIAN_POINT('Origin',(22.2999996647239,-2.,7.6989539937037));
#661=CARTESIAN_POINT('',(20.3345084101422,-2.,13.3678907659885));
#662=CARTESIAN_POINT('',(16.2999996647239,-2.,7.69895399370371));
#663=CARTESIAN_POINT('Origin',(22.2999996647239,-2.,7.6989539937037));
#664=CARTESIAN_POINT('',(16.2999996647239,-12.,7.69895399370371));
#665=CARTESIAN_POINT('',(16.2999996647239,-2.,7.69895399370371));
#666=CARTESIAN_POINT('',(20.3345084101422,-12.,13.3678907659885));
#667=CARTESIAN_POINT('Origin',(22.2999996647239,-12.,7.6989539937037));
#668=CARTESIAN_POINT('',(20.3345084101422,-2.,13.3678907659885));
#669=CARTESIAN_POINT('Ctrl Pts',(29.3345084101422,-21.,16.4883032880893));
#670=CARTESIAN_POINT('Ctrl Pts',(27.9881115586037,-21.,16.021490666394));
#671=CARTESIAN_POINT('Ctrl Pts',(25.2959058782127,-20.3857534069338,15.0880692978203));
#672=CARTESIAN_POINT('Ctrl Pts',(22.3279231465312,-18.0181815176603,14.0590325776739));
#673=CARTESIAN_POINT('Ctrl Pts',(20.6779873061218,-15.0288007240892,13.4869791935543));
#674=CARTESIAN_POINT('Ctrl Pts',(20.3345084101422,-13.0097976386539,13.3678907659885));
#675=CARTESIAN_POINT('Ctrl Pts',(20.3345084101422,-12.,13.3678907659885));
#676=CARTESIAN_POINT('Ctrl Pts',(29.3345084101422,-21.8975979010257,16.4883032880893));
#677=CARTESIAN_POINT('Ctrl Pts',(27.8681629735438,-21.8694879781471,15.9798019993346));
#678=CARTESIAN_POINT('Ctrl Pts',(24.9597162985649,-21.1456928099594,14.9715084768291));
#679=CARTESIAN_POINT('Ctrl Pts',(21.7868848666939,-18.5331196266747,13.8713780969581));
#680=CARTESIAN_POINT('Ctrl Pts',(20.0313214527113,-15.2806231305196,13.2627310533262));
#681=CARTESIAN_POINT('Ctrl Pts',(19.6666249283219,-13.0937762160563,13.1363272126578));
#682=CARTESIAN_POINT('Ctrl Pts',(19.6666249283219,-12.,13.1363272126578));
#683=CARTESIAN_POINT('Ctrl Pts',(29.4690600726052,-23.6890322071944,16.1002248037253));
#684=CARTESIAN_POINT('Ctrl Pts',(27.7548101024447,-23.6052990106608,15.533353256498));
#685=CARTESIAN_POINT('Ctrl Pts',(24.3983143454076,-22.663414712891,14.421854664493));
#686=CARTESIAN_POINT('Ctrl Pts',(20.799487937125,-19.5619436385457,13.227061045427));
#687=CARTESIAN_POINT('Ctrl Pts',(18.823893672529,-15.7838514754253,12.5703640240699));
#688=CARTESIAN_POINT('Ctrl Pts',(18.4149885525101,-13.2615525172558,12.4343884966411));
#689=CARTESIAN_POINT('Ctrl Pts',(18.4149885525101,-12.,12.4343884966411));
#690=CARTESIAN_POINT('Ctrl Pts',(30.1264659938153,-26.2139032713907,14.2041122708519));
#691=CARTESIAN_POINT('Ctrl Pts',(28.0363988029821,-26.0892693421988,13.632608801425));
#692=CARTESIAN_POINT('Ctrl Pts',(23.9653322668707,-24.9018667376027,12.5148439874839));
#693=CARTESIAN_POINT('Ctrl Pts',(19.6363344958407,-21.1212191468923,11.3174105940094));
#694=CARTESIAN_POINT('Ctrl Pts',(17.2694033034879,-16.5570429291384,10.6600991082281));
#695=CARTESIAN_POINT('Ctrl Pts',(16.7804642574367,-13.5191801076161,10.5240686855459));
#696=CARTESIAN_POINT('Ctrl Pts',(16.7804642574367,-12.,10.5240686855459));
#697=CARTESIAN_POINT('Ctrl Pts',(30.8589444585747,-27.,12.091472952767));
#698=CARTESIAN_POINT('Ctrl Pts',(28.6278877589196,-26.9331931435411,11.584734624828));
#699=CARTESIAN_POINT('Ctrl Pts',(24.2277806610761,-25.7930391273386,10.5816986458199));
#700=CARTESIAN_POINT('Ctrl Pts',(19.4666816834333,-21.8217731922918,9.48889200240733));
#701=CARTESIAN_POINT('Ctrl Pts',(16.8438300596141,-16.9242166401754,8.88471510435573));
#702=CARTESIAN_POINT('Ctrl Pts',(16.2999996647239,-13.6419923526856,8.75928533586472));
#703=CARTESIAN_POINT('Ctrl Pts',(16.2999996647239,-12.,8.75928533586472));
#704=CARTESIAN_POINT('Ctrl Pts',(31.2999996647239,-27.,10.8193665158045));
#705=CARTESIAN_POINT('Ctrl Pts',(29.0560049121598,-27.,10.3525538941092));
#706=CARTESIAN_POINT('Ctrl Pts',(24.5689954448414,-25.976255678223,9.41913252553551));
#707=CARTESIAN_POINT('Ctrl Pts',(19.6223575587056,-22.0303025294339,8.39009580538909));
#708=CARTESIAN_POINT('Ctrl Pts',(16.8724644913565,-17.0480012068153,7.8180424212695));
#709=CARTESIAN_POINT('Ctrl Pts',(16.2999996647239,-13.6829960644231,7.69895399370371));
#710=CARTESIAN_POINT('Ctrl Pts',(16.2999996647239,-12.,7.69895399370371));
#711=CARTESIAN_POINT('',(31.2999996647239,-27.,10.8193665158045));
#712=CARTESIAN_POINT('',(29.3345084101422,-21.,16.4883032880893));
#713=CARTESIAN_POINT('Origin',(31.2999996647239,-21.,10.8193665158045));
#714=CARTESIAN_POINT('Origin',(29.3345084101422,-12.,16.4883032880893));
#715=CARTESIAN_POINT('Origin',(31.2999996647239,-12.,10.8193665158045));
#716=CARTESIAN_POINT('Origin',(39.0530923291701,-21.,13.507460675265));
#717=CARTESIAN_POINT('',(48.6212556505631,-27.,16.8248625243295));
#718=CARTESIAN_POINT('',(46.3275136232861,-21.,22.3799906497801));
#719=CARTESIAN_POINT('Ctrl Pts',(46.3275136232861,-21.,22.3799906497801));
#720=CARTESIAN_POINT('Ctrl Pts',(46.3275136232861,-21.7541105824518,22.3799906497801));
#721=CARTESIAN_POINT('Ctrl Pts',(46.3942406863832,-22.5580176361521,22.2434669540766));
#722=CARTESIAN_POINT('Ctrl Pts',(46.6572589122628,-24.0360999549668,21.6863455021951));
#723=CARTESIAN_POINT('Ctrl Pts',(46.8526183840157,-24.7103338337653,21.2654638261503));
#724=CARTESIAN_POINT('Ctrl Pts',(47.2840070959774,-25.7749895116157,20.2881851500802));
#725=CARTESIAN_POINT('Ctrl Pts',(47.5487497948596,-26.2366343753829,19.6663704711295));
#726=CARTESIAN_POINT('Ctrl Pts',(48.0945074213421,-26.849158337331,18.2912025423745));
#727=CARTESIAN_POINT('Ctrl Pts',(48.374658585266,-27.,17.5374899789164));
#728=CARTESIAN_POINT('Ctrl Pts',(48.6212556505631,-27.,16.8248625243295));
#729=CARTESIAN_POINT('',(37.0876010745884,-21.,19.1763974475499));
#730=CARTESIAN_POINT('',(39.0530923291701,-27.,13.507460675265));
#731=CARTESIAN_POINT('Origin',(33.5987841791982,-27.,-2.22044604925031E-14));
#732=CARTESIAN_POINT('',(31.2999996647239,-27.,6.00000008940697));
#733=CARTESIAN_POINT('',(31.2999996647239,-27.,5.98453807134267));
#734=CARTESIAN_POINT('',(51.098948119576,-27.,6.00000008940697));
#735=CARTESIAN_POINT('',(22.2449888610282,-27.,6.00000008940697));
#736=CARTESIAN_POINT('Origin',(4.68553145166729E-29,-27.,6.93343477609502E-14));
#737=CARTESIAN_POINT('Origin',(31.2999996647239,-12.,5.98453807134267));
#738=CARTESIAN_POINT('',(16.2999996647239,-12.,-7.69895399370369));
#739=CARTESIAN_POINT('',(16.2999996647239,-12.,5.98453807134268));
#740=CARTESIAN_POINT('',(31.2999996647239,-27.,-10.8193665158045));
#741=CARTESIAN_POINT('Origin',(31.2999996647239,-12.,-10.8193665158045));
#742=CARTESIAN_POINT('',(31.2999996647239,-27.,-6.00000008940697));
#743=CARTESIAN_POINT('',(31.2999996647239,-27.,5.98453807134267));
#744=CARTESIAN_POINT('',(26.5440059298024,-26.2260508783495,-6.00000008940697));
#745=CARTESIAN_POINT('Origin',(31.2999996647239,-12.,-6.00000008940695));
#746=CARTESIAN_POINT('',(26.5450012608198,-26.2263835945356,-1.77635683940025E-14));
#747=CARTESIAN_POINT('',(26.5445035953111,-26.2262172364425,-3.00000004470349));
#748=CARTESIAN_POINT('',(26.5495901170471,-26.2279165421133,6.00000008940697));
#749=CARTESIAN_POINT('',(26.5472956889335,-26.2271500683244,3.00000004470347));
#750=CARTESIAN_POINT('Origin',(31.2999996647239,-12.,6.00000008940697));
#751=CARTESIAN_POINT('Origin',(16.2999996647239,-2.,11.9690761426854));
#752=CARTESIAN_POINT('',(16.2999996647239,-2.,-7.69895399370369));
#753=CARTESIAN_POINT('',(16.2999996647239,-2.,7.69910053173539));
#754=CARTESIAN_POINT('',(16.2999996647239,-2.,-7.69895399370369));
#755=CARTESIAN_POINT('Origin',(33.5987841791982,-2.,-2.22044604925031E-14));
#756=CARTESIAN_POINT('',(46.3275136232861,-2.,22.3799906497801));
#757=CARTESIAN_POINT('',(20.3730651231548,-2.,13.3812588604436));
#758=CARTESIAN_POINT('',(51.098948119576,-2.,6.00000008940697));
#759=CARTESIAN_POINT('Origin',(4.68553145166729E-29,-2.,6.93343477609502E-14));
#760=CARTESIAN_POINT('',(26.5495901170471,-2.,6.00000008940697));
#761=CARTESIAN_POINT('',(22.2449888610282,-2.,6.00000008940697));
#762=CARTESIAN_POINT('',(26.5450012608198,-2.,-1.79387911343661E-14));
#763=CARTESIAN_POINT('',(26.5450012608198,-2.,-1.79387911343661E-14));
#764=CARTESIAN_POINT('',(26.5440059298024,-2.,-6.00000008940697));
#765=CARTESIAN_POINT('',(26.5450012608198,-2.,-1.79387911343661E-14));
#766=CARTESIAN_POINT('',(51.098948119576,-2.,-6.00000008940697));
#767=CARTESIAN_POINT('',(50.8975686936726,-2.,-6.00000008940697));
#768=CARTESIAN_POINT('',(46.327513623286,-2.,-22.3799906497801));
#769=CARTESIAN_POINT('Origin',(4.68553145166729E-29,-2.,6.93343477609502E-14));
#770=CARTESIAN_POINT('',(20.3345084101422,-2.,-13.3678907659885));
#771=CARTESIAN_POINT('',(20.3730651231548,-2.,-13.3812588604436));
#772=CARTESIAN_POINT('Origin',(22.2999996647239,-2.,-7.69895399370369));
#773=CARTESIAN_POINT('Origin',(22.2999996647239,-2.,-7.69895399370369));
#774=CARTESIAN_POINT('',(20.3345084101422,-12.,-13.3678907659885));
#775=CARTESIAN_POINT('',(20.3345084101422,-2.,-13.3678907659885));
#776=CARTESIAN_POINT('Origin',(22.2999996647239,-12.,-7.69895399370369));
#777=CARTESIAN_POINT('Ctrl Pts',(20.3345084101422,-12.,-13.3678907659885));
#778=CARTESIAN_POINT('Ctrl Pts',(20.3345084101422,-13.0097976386539,-13.3678907659885));
#779=CARTESIAN_POINT('Ctrl Pts',(20.6779873061218,-15.0288007240892,-13.4869791935543));
#780=CARTESIAN_POINT('Ctrl Pts',(22.3279231465312,-18.0181815176603,-14.0590325776739));
#781=CARTESIAN_POINT('Ctrl Pts',(25.2959058782127,-20.3857534069338,-15.0880692978203));
#782=CARTESIAN_POINT('Ctrl Pts',(27.9881115586037,-21.,-16.021490666394));
#783=CARTESIAN_POINT('Ctrl Pts',(29.3345084101422,-21.,-16.4883032880893));
#784=CARTESIAN_POINT('Ctrl Pts',(19.6666249283219,-12.,-13.1363272126578));
#785=CARTESIAN_POINT('Ctrl Pts',(19.6666249283219,-13.0937762160563,-13.1363272126578));
#786=CARTESIAN_POINT('Ctrl Pts',(20.0313214527113,-15.2806231305196,-13.2627310533262));
#787=CARTESIAN_POINT('Ctrl Pts',(21.7868848666939,-18.5331196266747,-13.8713780969581));
#788=CARTESIAN_POINT('Ctrl Pts',(24.9597162985648,-21.1456928099594,-14.9715084768291));
#789=CARTESIAN_POINT('Ctrl Pts',(27.8681629735438,-21.8694879781471,-15.9798019993346));
#790=CARTESIAN_POINT('Ctrl Pts',(29.3345084101422,-21.8975979010257,-16.4883032880893));
#791=CARTESIAN_POINT('Ctrl Pts',(18.4149885525101,-12.,-12.434388496641));
#792=CARTESIAN_POINT('Ctrl Pts',(18.4149885525101,-13.2615525172558,-12.434388496641));
#793=CARTESIAN_POINT('Ctrl Pts',(18.823893672529,-15.7838514754253,-12.5703640240698));
#794=CARTESIAN_POINT('Ctrl Pts',(20.7994879371249,-19.5619436385457,-13.2270610454269));
#795=CARTESIAN_POINT('Ctrl Pts',(24.3983143454076,-22.663414712891,-14.421854664493));
#796=CARTESIAN_POINT('Ctrl Pts',(27.7548101024446,-23.6052990106608,-15.533353256498));
#797=CARTESIAN_POINT('Ctrl Pts',(29.4690600726052,-23.6890322071944,-16.1002248037253));
#798=CARTESIAN_POINT('Ctrl Pts',(16.7804642574367,-12.,-10.5240686855458));
#799=CARTESIAN_POINT('Ctrl Pts',(16.7804642574367,-13.5191801076161,-10.5240686855458));
#800=CARTESIAN_POINT('Ctrl Pts',(17.2694033034879,-16.5570429291384,-10.660099108228));
#801=CARTESIAN_POINT('Ctrl Pts',(19.6363344958406,-21.1212191468923,-11.3174105940094));
#802=CARTESIAN_POINT('Ctrl Pts',(23.9653322668706,-24.9018667376027,-12.5148439874839));
#803=CARTESIAN_POINT('Ctrl Pts',(28.0363988029821,-26.0892693421988,-13.6326088014249));
#804=CARTESIAN_POINT('Ctrl Pts',(30.1264659938152,-26.2139032713907,-14.2041122708519));
#805=CARTESIAN_POINT('Ctrl Pts',(16.2999996647239,-12.,-8.75928533586469));
#806=CARTESIAN_POINT('Ctrl Pts',(16.2999996647239,-13.6419923526856,-8.75928533586469));
#807=CARTESIAN_POINT('Ctrl Pts',(16.8438300596141,-16.9242166401754,-8.88471510435571));
#808=CARTESIAN_POINT('Ctrl Pts',(19.4666816834333,-21.8217731922918,-9.4888920024073));
#809=CARTESIAN_POINT('Ctrl Pts',(24.2277806610761,-25.7930391273387,-10.5816986458199));
#810=CARTESIAN_POINT('Ctrl Pts',(28.6278877589196,-26.9331931435411,-11.584734624828));
#811=CARTESIAN_POINT('Ctrl Pts',(30.8589444585747,-27.,-12.091472952767));
#812=CARTESIAN_POINT('Ctrl Pts',(16.2999996647239,-12.,-7.69895399370369));
#813=CARTESIAN_POINT('Ctrl Pts',(16.2999996647239,-13.6829960644231,-7.69895399370369));
#814=CARTESIAN_POINT('Ctrl Pts',(16.8724644913565,-17.0480012068153,-7.81804242126948));
#815=CARTESIAN_POINT('Ctrl Pts',(19.6223575587056,-22.0303025294338,-8.39009580538908));
#816=CARTESIAN_POINT('Ctrl Pts',(24.5689954448414,-25.976255678223,-9.41913252553551));
#817=CARTESIAN_POINT('Ctrl Pts',(29.0560049121597,-27.,-10.3525538941092));
#818=CARTESIAN_POINT('Ctrl Pts',(31.2999996647239,-27.,-10.8193665158045));
#819=CARTESIAN_POINT('',(29.3345084101422,-21.,-16.4883032880893));
#820=CARTESIAN_POINT('Origin',(31.2999996647239,-21.,-10.8193665158045));
#821=CARTESIAN_POINT('Origin',(29.3345084101422,-12.,-16.4883032880893));
#822=CARTESIAN_POINT('Origin',(24.1344625162294,-21.,-8.33498519961109));
#823=CARTESIAN_POINT('',(46.327513623286,-21.,-22.3799906497801));
#824=CARTESIAN_POINT('',(48.621255650563,-27.,-16.8248625243295));
#825=CARTESIAN_POINT('Ctrl Pts',(48.621255650563,-27.,-16.8248625243295));
#826=CARTESIAN_POINT('Ctrl Pts',(48.374658585266,-27.,-17.5374899789164));
#827=CARTESIAN_POINT('Ctrl Pts',(48.0945074213421,-26.849158337331,-18.2912025423746));
#828=CARTESIAN_POINT('Ctrl Pts',(47.5487497948595,-26.2366343753829,-19.6663704711296));
#829=CARTESIAN_POINT('Ctrl Pts',(47.2840070959773,-25.7749895116157,-20.2881851500803));
#830=CARTESIAN_POINT('Ctrl Pts',(46.8526183840157,-24.7103338337653,-21.2654638261504));
#831=CARTESIAN_POINT('Ctrl Pts',(46.6572589122627,-24.0360999549668,-21.6863455021951));
#832=CARTESIAN_POINT('Ctrl Pts',(46.3942406863831,-22.5580176361521,-22.2434669540767));
#833=CARTESIAN_POINT('Ctrl Pts',(46.327513623286,-21.7541105824518,-22.3799906497801));
#834=CARTESIAN_POINT('Ctrl Pts',(46.327513623286,-21.,-22.3799906497801));
#835=CARTESIAN_POINT('',(24.1344625162294,-27.,-8.33498519961109));
#836=CARTESIAN_POINT('',(22.1689712616477,-21.,-14.0039219718959));
#837=CARTESIAN_POINT('Origin',(16.2999996647239,-2.,-11.9690761426853));
#838=CARTESIAN_POINT('',(46.327513623286,-2.,-22.3799906497801));
#839=CARTESIAN_POINT('Origin',(26.5450012608198,-2.,-1.79387911343661E-14));
#840=CARTESIAN_POINT('',(26.5450012608198,-2.,-1.79387911343661E-14));
#841=CARTESIAN_POINT('',(26.5495901170471,-2.,6.00000008940697));
#842=CARTESIAN_POINT('Origin',(26.5440059298024,-2.,-6.00000008940697));
#843=CARTESIAN_POINT('',(26.5440059298024,-2.,-6.00000008940697));
#844=CARTESIAN_POINT('Origin',(50.8975686936725,-2.,-6.00000008940697));
#845=CARTESIAN_POINT('',(51.098948119576,-27.,-6.00000008940697));
#846=CARTESIAN_POINT('',(50.8975686936726,-27.,-6.00000008940697));
#847=CARTESIAN_POINT('',(51.098948119576,-2.,-6.00000008940697));
#848=CARTESIAN_POINT('Origin',(33.5987841791982,-27.,-2.22044604925031E-14));
#849=CARTESIAN_POINT('Origin',(4.68553145166729E-29,-27.,6.93343477609502E-14));
#850=CARTESIAN_POINT('Origin',(46.1372592906052,-2.,22.3140270939933));
#851=CARTESIAN_POINT('',(46.3275136232861,-2.,22.3799906497801));
#852=CARTESIAN_POINT('Origin',(4.68553145166729E-29,-2.,6.93343477609502E-14));
#853=CARTESIAN_POINT('',(51.098948119576,-2.,6.00000008940697));
#854=CARTESIAN_POINT('Origin',(26.5495901170471,-2.,6.00000008940697));
#855=CARTESIAN_POINT('Origin',(4.68553145166729E-29,-2.,6.93343477609502E-14));
#856=CARTESIAN_POINT('',(0.,0.,0.));
#857=UNCERTAINTY_MEASURE_WITH_UNIT(LENGTH_MEASURE(0.01),#863,
'DISTANCE_ACCURACY_VALUE',
'Maximum model space distance between geometric entities at asserted c
onnectivities');
#858=UNCERTAINTY_MEASURE_WITH_UNIT(LENGTH_MEASURE(0.01),#863,
'DISTANCE_ACCURACY_VALUE',
'Maximum model space distance between geometric entities at asserted c
onnectivities');
#859=UNCERTAINTY_MEASURE_WITH_UNIT(LENGTH_MEASURE(0.01),#863,
'DISTANCE_ACCURACY_VALUE',
'Maximum model space distance between geometric entities at asserted c
onnectivities');
#860=(
GEOMETRIC_REPRESENTATION_CONTEXT(3)
GLOBAL_UNCERTAINTY_ASSIGNED_CONTEXT((#857))
GLOBAL_UNIT_ASSIGNED_CONTEXT((#863,#865,#866))
REPRESENTATION_CONTEXT('','3D')
);
#861=(
GEOMETRIC_REPRESENTATION_CONTEXT(3)
GLOBAL_UNCERTAINTY_ASSIGNED_CONTEXT((#858))
GLOBAL_UNIT_ASSIGNED_CONTEXT((#863,#865,#866))
REPRESENTATION_CONTEXT('','3D')
);
#862=(
GEOMETRIC_REPRESENTATION_CONTEXT(3)
GLOBAL_UNCERTAINTY_ASSIGNED_CONTEXT((#859))
GLOBAL_UNIT_ASSIGNED_CONTEXT((#863,#865,#866))
REPRESENTATION_CONTEXT('','3D')
);
#863=(
LENGTH_UNIT()
NAMED_UNIT(*)
SI_UNIT(.MILLI.,.METRE.)
);
#864=(
LENGTH_UNIT()
NAMED_UNIT(*)
SI_UNIT($,.METRE.)
);
#865=(
NAMED_UNIT(*)
PLANE_ANGLE_UNIT()
SI_UNIT($,.RADIAN.)
);
#866=(
NAMED_UNIT(*)
SI_UNIT($,.STERADIAN.)
SOLID_ANGLE_UNIT()
);
#867=SHAPE_DEFINITION_REPRESENTATION(#869,#872);
#868=SHAPE_DEFINITION_REPRESENTATION(#870,#873);
#869=PRODUCT_DEFINITION_SHAPE('',$,#875);
#870=PRODUCT_DEFINITION_SHAPE('',$,#876);
#871=PRODUCT_DEFINITION_SHAPE($,$,#14);
#872=SHAPE_REPRESENTATION('',(#415,#456),#860);
#873=SHAPE_REPRESENTATION('',(#416),#861);
#874=PRODUCT_DEFINITION_CONTEXT('part definition',#882,'design');
#875=PRODUCT_DEFINITION('version-4','version-4 v38',#877,#874);
#876=PRODUCT_DEFINITION('fix-2','fix-2',#878,#874);
#877=PRODUCT_DEFINITION_FORMATION('',$,#884);
#878=PRODUCT_DEFINITION_FORMATION('',$,#885);
#879=PRODUCT_RELATED_PRODUCT_CATEGORY('version-4 v38','version-4 v38',(#884));
#880=PRODUCT_RELATED_PRODUCT_CATEGORY('fix-2','fix-2',(#885));
#881=APPLICATION_PROTOCOL_DEFINITION('international standard',
'automotive_design',2009,#882);
#882=APPLICATION_CONTEXT(
'Core Data for Automotive Mechanical Design Process');
#883=PRODUCT_CONTEXT('part definition',#882,'mechanical');
#884=PRODUCT('version-4','version-4 v38',$,(#883));
#885=PRODUCT('fix-2','fix-2',$,(#883));
#886=PRESENTATION_STYLE_ASSIGNMENT((#888));
#887=PRESENTATION_STYLE_ASSIGNMENT((#889));
#888=SURFACE_STYLE_USAGE(.BOTH.,#890);
#889=SURFACE_STYLE_USAGE(.BOTH.,#891);
#890=SURFACE_SIDE_STYLE('',(#892));
#891=SURFACE_SIDE_STYLE('',(#893));
#892=SURFACE_STYLE_FILL_AREA(#894);
#893=SURFACE_STYLE_FILL_AREA(#895);
#894=FILL_AREA_STYLE('Stahl - satiniert',(#896));
#895=FILL_AREA_STYLE('PEEK',(#897));
#896=FILL_AREA_STYLE_COLOUR('Stahl - satiniert',#898);
#897=FILL_AREA_STYLE_COLOUR('PEEK',#899);
#898=COLOUR_RGB('Stahl - satiniert',0.627450980392157,0.627450980392157,
0.627450980392157);
#899=COLOUR_RGB('PEEK',0.6,0.509803921568627,0.368627450980392);
ENDSEC;
END-ISO-10303-21;
